<svg width="180" height="60" viewBox="0 0 300 100" fill="none" xmlns="http://www.w3.org/2000/svg">
<path d="M50 99.658L0.5 70.699V29.301L50 0.341003L99.5 29.3V70.698L50 99.658ZM2.5 69.553L50 97.342L97.5 69.553V30.448L50 2.659L2.5 30.448V69.553Z" fill="#2C7BE5"/>
<path d="M51 98.376H49V58.822L0.994995 30.738L2.005 29.011L50 57.091L97.995 29.011L99.005 30.738L51 58.822V98.376Z" fill="#2C7BE5"/>
<path d="M28.494 14.082L76.994 42.457L71.506 45.667L23.006 17.292" fill="#2C7BE5"/>
<path d="M71.507 46.246L71.254 46.098L22.754 17.724L23.259 16.861L71.507 45.087L76.003 42.457L28.241 14.514L28.746 13.65L77.983 42.457L71.507 46.246Z" fill="#2C7BE5"/>
<path d="M71.506 45.667V57.982H71.51L76.993 54.775V42.457" fill="#2C7BE5"/>
<path d="M71.006 45.667H72.006V57.113L76.493 54.487V42.457H77.493V55.062L71.646 58.482L71 58.85" fill="#2C7BE5"/>
<path d="M133.5 64C133.167 64 132.883 63.9 132.65 63.7C132.45 63.4667 132.35 63.1833 132.35 62.85V30.2C132.35 29.8333 132.45 29.55 132.65 29.35C132.883 29.1167 133.167 29 133.5 29H144.85C149.883 29 153.517 30.1333 155.75 32.4C157.983 34.6333 159.15 38.0167 159.25 42.55C159.283 43.5167 159.3 44.8167 159.3 46.45C159.3 48.0833 159.283 49.4 159.25 50.4C159.15 53.5667 158.617 56.15 157.65 58.15C156.717 60.1167 155.233 61.5833 153.2 62.55C151.167 63.5167 148.467 64 145.1 64H133.5ZM144.85 59.75C147.15 59.75 148.967 59.4333 150.3 58.8C151.667 58.1667 152.65 57.1667 153.25 55.8C153.883 54.4 154.233 52.5333 154.3 50.2C154.367 48.2 154.4 46.95 154.4 46.45C154.4 45.9167 154.367 44.6833 154.3 42.75C154.233 39.45 153.45 37.05 151.95 35.55C150.45 34.0167 148 33.25 144.6 33.25H137.25V59.75H144.85ZM174.89 64C174.557 64 174.274 63.9 174.04 63.7C173.84 63.4667 173.74 63.1833 173.74 62.85V33.45H164.14C163.807 33.45 163.524 33.35 163.29 33.15C163.09 32.9167 162.99 32.6333 162.99 32.3V30.2C162.99 29.8667 163.09 29.5833 163.29 29.35C163.524 29.1167 163.807 29 164.14 29H188.24C188.607 29 188.89 29.1167 189.09 29.35C189.324 29.55 189.44 29.8333 189.44 30.2V32.3C189.44 32.6333 189.324 32.9167 189.09 33.15C188.857 33.35 188.574 33.45 188.24 33.45H178.69V62.85C178.69 63.1833 178.574 63.4667 178.34 63.7C178.107 63.9 177.824 64 177.49 64H174.89ZM207.182 64C206.848 64 206.565 63.9 206.332 63.7C206.132 63.4667 206.032 63.1833 206.032 62.85V30.2C206.032 29.8333 206.132 29.55 206.332 29.35C206.565 29.1167 206.848 29 207.182 29H220.882C224.448 29 227.132 29.85 228.932 31.55C230.732 33.25 231.632 35.4833 231.632 38.25C231.632 40.1167 231.198 41.6667 230.332 42.9C229.498 44.1333 228.498 45.0333 227.332 45.6C228.732 46.3 229.915 47.3833 230.882 48.85C231.848 50.3167 232.332 52 232.332 53.9C232.332 55.7667 231.898 57.4667 231.032 59C230.198 60.5333 228.948 61.75 227.282 62.65C225.615 63.55 223.615 64 221.282 64H207.182ZM220.132 43.8C222.232 43.8 223.832 43.3167 224.932 42.35C226.065 41.3833 226.632 40.0333 226.632 38.3C226.632 36.6 226.082 35.3 224.982 34.4C223.882 33.5 222.265 33.05 220.132 33.05H210.932V43.8H220.132ZM220.632 59.95C222.732 59.95 224.365 59.3833 225.532 58.25C226.732 57.1167 227.332 55.6667 227.332 53.9C227.332 52.0667 226.732 50.6 225.532 49.5C224.365 48.3667 222.732 47.8 220.632 47.8H210.932V59.95H220.632ZM252.03 64.5C247.663 64.5 244.28 63.3667 241.88 61.1C239.513 58.8 238.263 55.35 238.13 50.75C238.097 49.75 238.08 48.3333 238.08 46.5C238.08 44.6667 238.097 43.2667 238.13 42.3C238.263 37.8 239.563 34.3833 242.03 32.05C244.497 29.6833 247.83 28.5 252.03 28.5C256.197 28.5 259.513 29.6833 261.98 32.05C264.447 34.3833 265.747 37.8 265.88 42.3C265.947 44.2333 265.98 45.6333 265.98 46.5C265.98 47.3333 265.947 48.75 265.88 50.75C265.747 55.35 264.48 58.8 262.08 61.1C259.713 63.3667 256.363 64.5 252.03 64.5ZM252.03 60.25C254.663 60.25 256.763 59.45 258.33 57.85C259.897 56.25 260.747 53.8 260.88 50.5C260.947 48.5 260.98 47.1667 260.98 46.5C260.98 45.7667 260.947 44.4333 260.88 42.5C260.747 39.2 259.88 36.75 258.28 35.15C256.713 33.55 254.63 32.75 252.03 32.75C249.397 32.75 247.28 33.55 245.68 35.15C244.113 36.75 243.263 39.2 243.13 42.5C243.097 43.4667 243.08 44.8 243.08 46.5C243.08 48.1667 243.097 49.5 243.13 50.5C243.263 53.8 244.113 56.25 245.68 57.85C247.28 59.45 249.397 60.25 252.03 60.25ZM269.996 64C269.729 64 269.479 63.9 269.246 63.7C269.046 63.5 268.946 63.2667 268.946 63C268.946 62.7667 269.013 62.55 269.146 62.35L280.596 46.2L269.696 30.65C269.596 30.4833 269.546 30.2667 269.546 30C269.546 29.7333 269.646 29.5 269.846 29.3C270.046 29.1 270.279 29 270.546 29H273.546C274.046 29 274.496 29.2833 274.896 29.85L283.696 42.35L292.446 29.85C292.779 29.2833 293.213 29 293.746 29H296.596C296.863 29 297.096 29.1 297.296 29.3C297.496 29.5 297.596 29.7333 297.596 30C297.596 30.3 297.529 30.5167 297.396 30.65L286.646 46.25L298.046 62.35C298.179 62.55 298.246 62.7667 298.246 63C298.246 63.2667 298.146 63.5 297.946 63.7C297.746 63.9 297.496 64 297.196 64H294.146C293.646 64 293.196 63.7167 292.796 63.15L283.496 50.2L274.246 63.15C273.913 63.7167 273.479 64 272.946 64H269.996Z" fill="#12263F"/>
</svg>
